<?xml version="1.0" encoding="utf-8"?>
<!-- Svg Vector Icons : http://www.onlinewebfonts.com/icon -->
<!DOCTYPE svg PUBLIC "-//W3C//DTD SVG 1.1//EN" "http://www.w3.org/Graphics/SVG/1.1/DTD/svg11.dtd">
<svg version="1.1" xmlns="http://www.w3.org/2000/svg" xmlns:xlink="http://www.w3.org/1999/xlink" x="0px" y="0px" viewBox="0 0 256 256" enable-background="new 0 0 256 256" xml:space="preserve">
<metadata> Svg Vector Icons : http://www.onlinewebfonts.com/icon </metadata>
<g><g><g><path fill="#000000" d="M115.4,10.4c-24.8,3-47.4,13-65.8,29.2c-19.3,16.8-33.4,41.9-38.1,67.9c-2,11-2,30,0,41c5.8,31.7,24,59.6,50.7,77.5c30.5,20.6,68.3,25.7,103.1,14.1c35.1-11.8,62.9-39.5,74.7-74.7c16.8-50.5-2-105.5-46.3-135.3c-13.5-9.1-29.6-15.6-45.2-18.3C139.6,10.1,123,9.4,115.4,10.4z M144.1,42.9c30.8,6,56.2,28.4,66.2,58.3c3,8.9,3.9,15.6,3.9,26.7c0,11.8-1.1,18.1-4.6,28.4c-4.5,12.7-11,23.1-20.6,32.7c-9.6,9.7-20,16.2-32.7,20.6c-47.7,16.6-99.5-11.1-112.2-60C31,99.4,65.1,49,117.1,42C123.3,41.1,137.5,41.6,144.1,42.9z"/><path fill="#000000" d="M104.9,127.6c0,28.4,0.1,51.6,0.3,51.6c0.3,0,58.9-48.5,61-50.6c1.1-1-0.3-2.3-29.5-26.7c-16.9-14.1-30.9-25.7-31.3-25.8C105.2,76,104.9,99.2,104.9,127.6z"/></g></g></g>
</svg>